#!OML:ASF I:\Actors\actors\Patient Classification 2\Patient 1\Session 1\actor1.ASF
:FULLY-SPECIFIED
:DEGREES
525
root -0.498726 18.6975 5.49537 1.43294 -3.34358 -1.97221
lowerback 9.29612 1.49179 -1.53715
upperback -2.94545 1.8019 -0.0195648
thorax -8.39481 0.956301 0.548087
lowerneck -17.2316 -3.25731 -1.87971
upperneck 34.1775 -5.05883 2.16433
head 14.8486 -2.1063 0.331491
rclavicle -9.07576e-015 3.57812e-015
rhumerus -30.0901 71.2465 -77.2269
rradius 119.939
rwrist -29.7704
rhand 11.9345 -55.6274
rfingers 7.12502
rthumb 36.9587 -81.7025
lclavicle -9.07576e-015 3.57812e-015
lhumerus -66.5338 -53.6564 128.167
lradius 78.45
lwrist 61.835
lhand 15.4674 3.66935
lfingers 7.12502
lthumb 40.2914 28.8068
rfemur 0 0 0
rtibia 0
rfoot 0 0
rtoes 0
lfemur -5.06844 -2.53889 -12.6649
ltibia 23.4864
lfoot -24.0555 16.3193
ltoes -55.4654
526
root -0.483377 18.6946 5.49711 1.30311 -3.3232 -2.35718
lowerback 9.52866 1.41911 -0.872245
upperback -2.99228 1.78724 -0.00460243
thorax -8.55848 0.914706 0.186008
lowerneck -17.1781 -3.25077 -1.75943
upperneck 33.9993 -5.04402 2.05651
head 14.7449 -2.10307 0.270059
rclavicle 5.00689e-015 5.56597e-015
rhumerus -28.6336 70.091 -75.8961
rradius 120.669
rwrist -29.9941
rhand 13.2422 -56.1193
rfingers 7.12502
rthumb 38.1945 -81.8654
lclavicle 5.00689e-015 5.56597e-015
lhumerus -66.7387 -53.5327 128.237
lradius 78.4886
lwrist 61.819
lhand 15.353 3.70377
lfingers 7.12502
lthumb 40.1838 28.8741
rfemur 0 0 0
rtibia 0
rfoot 0 0
rtoes 0
lfemur -4.80916 -2.54121 -12.2933
ltibia 23.3805
lfoot -24.0359 16.3071
ltoes -55.4558
527
root -0.477022 18.6947 5.50158 1.33837 -3.3789 -2.29769
lowerback 9.49596 1.40831 -0.797255
upperback -3.0935 1.7751 -0.0970265
thorax -8.64338 0.902228 0.0470977
lowerneck -17.0818 -3.24254 -1.76755
upperneck 33.8486 -5.06731 2.17385
head 14.6586 -2.10108 0.317589
rclavicle -1.83814e-014 1.98785e-015
rhumerus -23.4709 70.5302 -70.7738
rradius 121.828
rwrist -31.5404
rhand 13.3003 -56.4553
rfingers 7.12502
rthumb 38.2494 -82.1863
lclavicle -1.83814e-014 1.98785e-015
lhumerus -67.0624 -53.4368 128.392
lradius 78.5507
lwrist 61.7704
lhand 15.2627 3.74628
lfingers 7.12502
lthumb 40.0988 28.9424
rfemur 0 0 0
rtibia 0
rfoot 0 0
rtoes 0
lfemur -4.72225 -2.61408 -12.3956
ltibia 23.2147
lfoot -24.0741 16.3538
ltoes -55.2606
528
root -0.501702 18.6996 5.5142 1.58497 -3.60759 -1.70001
lowerback 8.87183 1.48043 -1.89507
upperback -3.06159 1.73906 -0.159893
thorax -8.27937 0.940935 0.619833
lowerneck -17.2481 -3.19238 -1.76862
upperneck 33.6211 -5.01109 2.25643
head 14.5935 -2.06645 0.358881
rclavicle -1.14985e-014 3.97569e-016
rhumerus -19.5871 69.91 -67.1355
rradius 122.608
rwrist -32.536
rhand 13.7538 -57.0485
rfingers 7.12502
rthumb 38.6773 -82.6602
lclavicle -1.14985e-014 3.97569e-016
lhumerus -66.9328 -53.3439 128.227
lradius 78.583
lwrist 61.4852
lhand 15.0234 3.46991
lfingers 7.12502
lthumb 39.8736 28.734
rfemur 0 0 0
rtibia 0
rfoot 0 0
rtoes 0
lfemur -4.92077 -2.66395 -13.0035
ltibia 23.0937
lfoot -24.1694 16.527
ltoes -55.0387
529
root -0.509969 18.7009 5.52113 1.67874 -3.69902 -1.50122
lowerback 8.28068 1.42868 -2.47392
upperback -2.76634 1.62895 -0.0424546
thorax -7.63799 0.913551 1.10511
lowerneck -17.7354 -3.10966 -1.6629
upperneck 33.2387 -4.82778 2.0511
head 14.513 -2.00205 0.281221
rclavicle 1.80009e-014 -1.98785e-015
rhumerus -14.3535 69.2541 -62.2687
rradius 123.24
rwrist -33.4955
rhand 13.9465 -57.5452
rfingers 7.12502
rthumb 38.8591 -83.1054
lclavicle 1.80009e-014 -1.98785e-015
lhumerus -66.0785 -53.2741 127.603
lradius 78.5417
lwrist 61.0294
lhand 14.6217 2.85582
lfingers 7.12502
lthumb 39.4955 28.2321
rfemur 0 0 0
rtibia 0
rfoot 0 0
rtoes 0
lfemur -4.92518 -2.6777 -13.2091
ltibia 22.926
lfoot -24.1375 16.6398
ltoes -55.0033
530
root -0.510198 18.7011 5.52664 1.6891 -3.70837 -1.47792
lowerback 8.27101 1.39503 -2.51244
upperback -2.78468 1.5787 -0.0553371
thorax -7.65083 0.890774 1.12065
lowerneck -17.9076 -3.09639 -1.54297
upperneck 33.0563 -4.81859 1.98859
head 14.4626 -1.99211 0.234101
rclavicle -1.40423e-014 -5.1684e-015
rhumerus -10.3292 68.8021 -58.5997
rradius 123.921
rwrist -34.2237
rhand 14.3656 -57.8945
rfingers 7.12502
rthumb 39.2542 -83.3413
lclavicle -1.40423e-014 -5.1684e-015
lhumerus -66.1317 -53.1125 127.596
lradius 78.5582
lwrist 60.7714
lhand 14.3303 2.51792
lfingers 7.12502
lthumb 39.2209 27.9743
rfemur 0 0 0
rtibia 0
rfoot 0 0
rtoes 0
lfemur -4.84067 -2.66514 -13.2396
ltibia 22.7751
lfoot -24.071 16.702
ltoes -55.1027
531
root -0.509911 18.7018 5.53198 1.7019 -3.72701 -1.43219
lowerback 8.65862 1.4259 -2.34565
upperback -3.10914 1.61103 -0.230868
thorax -8.21539 0.900089 0.822669
lowerneck -17.7494 -3.15472 -1.52255
upperneck 32.9783 -4.99746 2.22519
head 14.4045 -2.03615 0.298135
rclavicle -2.39784e-014 4.77083e-015
rhumerus -8.4665 68.2756 -56.956
rradius 124.632
rwrist -34.7742
rhand 15.3793 -58.101
rfingers 7.12502
rthumb 40.2086 -83.2638
lclavicle -2.39784e-014 4.77083e-015
lhumerus -67.0654 -52.8814 128.15
lradius 78.6543
lwrist 60.656
lhand 14.2599 2.53479
lfingers 7.12502
lthumb 39.1545 28.0104
rfemur 0 0 0
rtibia 0
rfoot 0 0
rtoes 0
lfemur -4.8119 -2.65839 -13.2987
ltibia 22.7304
lfoot -24.075 16.7541
ltoes -55.2107
532
root -0.508864 18.7016 5.53755 1.69835 -3.79191 -1.4233
lowerback 8.73317 1.43921 -2.28987
upperback -3.19086 1.62795 -0.288325
thorax -8.34407 0.905104 0.724702
lowerneck -17.7252 -3.18262 -1.51231
upperneck 32.6422 -5.07803 2.36491
head 14.255 -2.05489 0.339836
rclavicle 2.45126e-014 -9.14409e-015
rhumerus -5.6859 67.6608 -54.3706
rradius 125.368
rwrist -35.7738
rhand 15.8605 -58.2499
rfingers 7.12502
rthumb 40.6611 -83.2731
lclavicle 2.45126e-014 -9.14409e-015
lhumerus -67.3332 -52.7772 128.262
lradius 78.7106
lwrist 60.5224
lhand 14.2579 2.46612
lfingers 7.12502
lthumb 39.1527 27.9423
rfemur 0 0 0
rtibia 0
rfoot 0 0
rtoes 0
lfemur -4.7695 -2.6369 -13.3208
ltibia 22.7227
lfoot -24.1353 16.7898
ltoes -55.2495
533
root -0.507666 18.7002 5.54404 1.69 -3.88464 -1.46428
lowerback 8.77349 1.46809 -2.35298
upperback -3.23818 1.66332 -0.212093
thorax -8.4245 0.928903 0.833298
lowerneck -17.7327 -3.19066 -1.51383
upperneck 32.3042 -5.0548 2.31206
head 14.1033 -2.05713 0.323291
rclavicle -2.01891e-015 2.38542e-015
rhumerus -2.84785 67.1308 -51.6406
rradius 126.152
rwrist -36.8785
rhand 15.7741 -58.4256
rfingers 7.12502
rthumb 40.5798 -83.4741
lclavicle -2.01891e-015 2.38542e-015
lhumerus -67.4125 -52.6548 128.411
lradius 78.6967
lwrist 60.4232
lhand 14.278 2.29915
lfingers 7.12502
lthumb 39.1716 27.7698
rfemur 0 0 0
rtibia 0
rfoot 0 0
rtoes 0
lfemur -4.70674 -2.6183 -13.2908
ltibia 22.7189
lfoot -24.2111 16.8044
ltoes -55.1559
534
root -0.5065 18.6996 5.54918 1.69229 -3.95143 -1.51311
lowerback 8.78951 1.47489 -2.35214
upperback -3.26579 1.67541 -0.166383
thorax -8.46562 0.936667 0.878395
lowerneck -17.8108 -3.17608 -1.5398
upperneck 31.9902 -5.01345 2.32399
head 13.982 -2.04403 0.338957
rclavicle -7.82715e-016 8.34896e-015
rhumerus -0.232384 66.5274 -49.2348
rradius 126.885
rwrist -37.7866
rhand 15.5324 -58.6973
rfingers 7.12502
rthumb 40.3526 -83.816
lclavicle -7.82715e-016 8.34896e-015
lhumerus -67.4429 -52.5557 128.46
lradius 78.6884
lwrist 60.4286
lhand 14.2812 2.2512
lfingers 7.12502
lthumb 39.1747 27.721
rfemur 0 0 0
rtibia 0
rfoot 0 0
rtoes 0
lfemur -4.66373 -2.63578 -13.2533
ltibia 22.7115
lfoot -24.2451 16.8404
ltoes -55.0413
535
root -0.50541 18.7003 5.55252 1.69486 -3.99148 -1.52345
lowerback 8.77876 1.47318 -2.35584
upperback -3.24684 1.67537 -0.139133
thorax -8.43984 0.937364 0.909914
lowerneck -17.955 -3.17666 -1.64502
upperneck 31.6073 -5.01578 2.48451
head 13.8551 -2.03846 0.418858
rclavicle 2.81405e-015 -5.96354e-015
rhumerus 2.34357 65.8203 -46.9008
rradius 127.566
rwrist -38.7513
rhand 15.2795 -59.0144
rfingers 7.12502
rthumb 40.1147 -84.2057
lclavicle 2.81405e-015 -5.96354e-015
lhumerus -67.3643 -52.5026 128.403
lradius 78.7015
lwrist 60.4446
lhand 14.1885 2.28162
lfingers 7.12502
lthumb 39.0873 27.7766
rfemur 0 0 0
rtibia 0
rfoot 0 0
rtoes 0
lfemur -4.63781 -2.65597 -13.255
ltibia 22.6984
lfoot -24.2613 16.9116
ltoes -55.0414
536
root -0.504492 18.6999 5.55581 1.70366 -4.03098 -1.50293
lowerback 8.81409 1.49557 -2.40588
upperback -3.26018 1.7005 -0.109268
thorax -8.47855 0.953572 0.964467
lowerneck -18.0553 -3.20743 -1.76728
upperneck 31.1952 -5.05993 2.65961
head 13.7095 -2.0518 0.500441
rclavicle 7.32397e-015 1.31198e-014
rhumerus 7.19382 65.4162 -42.184
rradius 128.538
rwrist -40.5123
rhand 14.5156 -59.1644
rfingers 7.12502
rthumb 39.3955 -84.57
lclavicle 7.32397e-015 1.31198e-014
lhumerus -67.3832 -52.4709 128.48
lradius 78.6952
lwrist 60.4426
lhand 14.0513 2.25856
lfingers 7.12502
lthumb 38.9579 27.7906
rfemur 0 0 0
rtibia 0
rfoot 0 0
rtoes 0
lfemur -4.62275 -2.67846 -13.287
ltibia 22.6843
lfoot -24.3085 16.9411
ltoes -55.0155
537
root -0.503951 18.699 5.55899 1.72496 -4.06266 -1.46906
lowerback 8.80507 1.50917 -2.41978
upperback -3.26909 1.71539 -0.131428
thorax -8.48327 0.960988 0.946451
lowerneck -18.092 -3.21833 -1.74866
upperneck 30.6977 -5.08713 2.74488
head 13.5072 -2.05565 0.525756
rclavicle 3.95706e-015 -2.78299e-015
rhumerus 9.44085 64.7095 -40.2065
rradius 129.28
rwrist -41.7213
rhand 14.3747 -59.6872
rfingers 7.12502
rthumb 39.2628 -85.1314
lclavicle 3.95706e-015 -2.78299e-015
lhumerus -67.436 -52.4892 128.501
lradius 78.7009
lwrist 60.5435
lhand 13.9594 2.23754
lfingers 7.12502
lthumb 38.8712 27.7943
rfemur 0 0 0
rtibia 0
rfoot 0 0
rtoes 0
lfemur -4.61992 -2.68483 -13.3303
ltibia 22.6607
lfoot -24.3344 16.9318
ltoes -54.9884
